<svg width="349" height="45" viewBox="0 0 349 45" fill="none" xmlns="http://www.w3.org/2000/svg">
<path d="M336.944 18.4C337.115 19.2107 337.371 20.2133 337.712 21.408C338.053 22.6027 338.416 23.9253 338.8 25.376C339.227 26.8267 339.675 28.384 340.144 30.048C340.656 31.712 341.147 33.4187 341.616 35.168C341.616 32.9493 341.595 30.5813 341.552 28.064C341.509 25.504 341.467 22.9013 341.424 20.256C341.381 17.6107 341.339 14.944 341.296 12.256C341.253 9.52534 341.232 6.90134 341.232 4.384H348.528C348.4 7.62667 348.272 10.976 348.144 14.432C348.016 17.8453 347.867 21.2587 347.696 24.672C347.525 28.0427 347.312 31.3707 347.056 34.656C346.843 37.9413 346.587 41.056 346.288 44H339.76C338.821 41.312 337.883 38.432 336.944 35.36C336.005 32.2453 335.067 29.28 334.128 26.464C333.189 29.152 332.208 32.0747 331.184 35.232C330.16 38.3893 329.221 41.312 328.368 44H321.84C321.499 41.056 321.2 37.9413 320.944 34.656C320.688 31.328 320.453 27.9787 320.24 24.608C320.069 21.1947 319.92 17.7813 319.792 14.368C319.664 10.912 319.557 7.584 319.472 4.384H326.768C326.725 6.90134 326.683 9.504 326.64 12.192C326.597 14.88 326.555 17.568 326.512 20.256C326.469 22.9013 326.427 25.504 326.384 28.064C326.341 30.5813 326.32 32.9493 326.32 35.168C326.704 33.8027 327.131 32.3093 327.6 30.688C328.112 29.0667 328.581 27.4667 329.008 25.888C329.477 24.3093 329.904 22.8587 330.288 21.536C330.672 20.2133 330.971 19.168 331.184 18.4H336.944Z" fill="white"/>
<path d="M290.032 44V4.384H314.032V10.912H297.904V19.808H311.92V26.336H297.904V37.472H315.44V44H290.032Z" fill="white"/>
<path d="M257.456 44V37.472H266.096V10.912H257.456V4.384H282.608V10.912H274.032V37.472H282.608V44H257.456Z" fill="white"/>
<path d="M233.904 44C232.88 41.056 231.792 37.728 230.64 34.016C229.488 30.304 228.4 26.6133 227.376 22.944C226.352 19.232 225.435 15.7333 224.624 12.448C223.813 9.16267 223.216 6.47467 222.832 4.384H231.152C231.408 6.432 231.792 8.82133 232.304 11.552C232.816 14.24 233.371 17.0347 233.968 19.936C234.608 22.7947 235.269 25.632 235.952 28.448C236.677 31.2213 237.381 33.7173 238.064 35.936C238.747 33.76 239.429 31.2853 240.112 28.512C240.795 25.696 241.435 22.8587 242.032 20C242.629 17.0987 243.184 14.2827 243.696 11.552C244.208 8.82133 244.635 6.432 244.976 4.384H253.232C252.72 6.944 252.08 9.80267 251.312 12.96C250.587 16.1173 249.733 19.4453 248.752 22.944C247.813 26.4 246.768 29.9413 245.616 33.568C244.464 37.152 243.269 40.6293 242.032 44H233.904Z" fill="white"/>
<path d="M194.032 44V4.384H218.032V10.912H201.904V19.808H215.92V26.336H201.904V37.472H219.44V44H194.032Z" fill="white"/>
<path d="M171.696 3.936C173.957 3.936 176.005 4.19201 177.84 4.70401C179.675 5.216 181.253 6.00534 182.576 7.07201C183.899 8.13867 184.901 9.50401 185.584 11.168C186.309 12.7893 186.672 14.7093 186.672 16.928C186.672 19.232 186.203 21.3227 185.264 23.2C184.325 25.0773 182.768 26.5067 180.592 27.488C181.317 28.5973 182.085 29.8347 182.896 31.2C183.707 32.5227 184.496 33.9307 185.264 35.424C186.032 36.8747 186.757 38.3467 187.44 39.84C188.165 41.2907 188.784 42.6773 189.296 44H181.04C180.059 41.44 178.907 38.9867 177.584 36.64C176.304 34.2507 174.917 31.84 173.424 29.408H169.328V44H161.456V4.96001C162.224 4.78934 163.056 4.64001 163.952 4.512C164.891 4.34134 165.829 4.23467 166.768 4.19201C167.707 4.10667 168.603 4.04267 169.456 4.00001C170.309 3.95734 171.056 3.936 171.696 3.936ZM178.672 16.864C178.672 14.7733 178.032 13.2373 176.752 12.256C175.472 11.2747 173.787 10.784 171.696 10.784C171.397 10.784 171.035 10.8053 170.608 10.848C170.181 10.848 169.755 10.8907 169.328 10.976V22.88H171.056C173.744 22.88 175.685 22.368 176.88 21.344C178.075 20.2773 178.672 18.784 178.672 16.864Z" fill="white"/>
<path d="M106.416 44C104.496 40.2027 102.533 35.7653 100.528 30.688C98.5653 25.568 96.688 19.9787 94.896 13.92H103.152C103.536 15.5413 103.984 17.2693 104.496 19.104C105.051 20.9387 105.627 22.7947 106.224 24.672C106.821 26.5067 107.419 28.2987 108.016 30.048C108.656 31.7973 109.253 33.3973 109.808 34.848C110.363 33.3973 110.981 31.7973 111.664 30.048C112.347 28.2987 113.008 26.5067 113.648 24.672C114.331 22.7947 114.971 20.9387 115.568 19.104C116.208 17.2693 116.72 15.5413 117.104 13.92H125.104C123.312 19.9787 121.328 25.568 119.152 30.688C116.976 35.7653 114.928 40.2027 113.008 44H106.416Z" fill="white"/>
<path d="M80.176 5.28C80.176 6.816 79.6853 8.032 78.704 8.928C77.7226 9.824 76.5493 10.272 75.184 10.272C73.8186 10.272 72.6453 9.824 71.664 8.928C70.7253 8.032 70.256 6.816 70.256 5.28C70.256 3.70133 70.7253 2.464 71.664 1.568C72.6453 0.671998 73.8186 0.223999 75.184 0.223999C76.5493 0.223999 77.7226 0.671998 78.704 1.568C79.6853 2.464 80.176 3.70133 80.176 5.28ZM91.888 42.72C90.2666 43.488 88.7306 44 87.28 44.256C85.872 44.5547 84.5706 44.704 83.376 44.704C81.328 44.704 79.6 44.4053 78.192 43.808C76.8266 43.2107 75.7173 42.3573 74.864 41.248C74.0533 40.096 73.4773 38.7093 73.136 37.088C72.7946 35.4667 72.624 33.6107 72.624 31.52V20.448H64.304V13.92H80.496V32.544C80.496 34.336 80.816 35.68 81.456 36.576C82.1386 37.4293 83.248 37.856 84.784 37.856C85.5093 37.856 86.384 37.7707 87.408 37.6C88.432 37.3867 89.584 36.9813 90.864 36.384L91.888 42.72Z" fill="white"/>
<path d="M34.032 14.88C35.44 14.496 37.168 14.1333 39.216 13.792C41.3066 13.4507 43.568 13.28 46 13.28C48.3893 13.28 50.3733 13.6213 51.952 14.304C53.5307 14.944 54.768 15.8827 55.664 17.12C56.6026 18.3147 57.264 19.7653 57.648 21.472C58.032 23.136 58.224 24.992 58.224 27.04V44H50.352V28.064C50.352 25.248 50.032 23.2213 49.392 21.984C48.752 20.7467 47.4506 20.128 45.488 20.128C44.8906 20.128 44.2933 20.1493 43.696 20.192C43.1413 20.2347 42.544 20.2987 41.904 20.384V44H34.032V14.88Z" fill="white"/>
<path d="M13.872 44.832C11.312 44.832 9.15731 44.4907 7.40797 43.808C5.70131 43.0827 4.33597 42.0587 3.31197 40.736C2.28797 39.4133 1.56264 37.8133 1.13597 35.936C0.709305 34.0587 0.495972 31.968 0.495972 29.664V4.384H8.43197V29.152C8.43197 30.816 8.51731 32.224 8.68797 33.376C8.85864 34.4853 9.13597 35.3813 9.51997 36.064C9.94664 36.7467 10.5226 37.2373 11.248 37.536C11.9733 37.8347 12.8906 37.984 14 37.984C15.1093 37.984 16.0266 37.8347 16.752 37.536C17.4773 37.2373 18.0533 36.7467 18.48 36.064C18.9066 35.3387 19.2053 34.4213 19.376 33.312C19.5466 32.16 19.632 30.752 19.632 29.088V4.384H27.504V29.664C27.504 31.968 27.2906 34.0587 26.864 35.936C26.4373 37.8133 25.6906 39.4133 24.624 40.736C23.5573 42.0587 22.1493 43.0827 20.4 43.808C18.6506 44.4907 16.4746 44.832 13.872 44.832Z" fill="white"/>
</svg>
